<svg xmlns="http://www.w3.org/2000/svg" width="300" height="53.676" viewBox="0 0 300 53.676"><defs><style>.a{fill:#fd0028;}</style></defs><g transform="translate(0 15.489)"><path class="a" d="M102.824,42.9H95.4V72.008h20.082v-6.3H102.824Z" transform="translate(-68.215 -42.419)"/><path class="a" d="M152.781,42.9H142.9V72.061h10.575a15.763,15.763,0,0,0,11.216-4.433c2.617-2.617,3.792-5.822,3.792-10.094,0-4.433-1.389-8.011-4.059-10.628-2.884-2.724-6.676-4.006-11.643-4.006m5.608,20.723a8.928,8.928,0,0,1-6.463,2.136h-1.6V49.2h1.923c2.03,0,4.326.214,6.142,1.869a8.963,8.963,0,0,1,2.3,6.463,8.026,8.026,0,0,1-2.3,6.089" transform="translate(-90.345 -42.419)"/><path class="a" d="M224.558,46.273h0a16.717,16.717,0,0,0-22.325,0,15.28,15.28,0,0,0,0,21.524,16.717,16.717,0,0,0,22.325,0,15.28,15.28,0,0,0,0-21.524m-5.394,16.45a7.848,7.848,0,0,1-5.768,2.3,8.063,8.063,0,0,1-5.822-2.35,7.334,7.334,0,0,1-2.3-5.448A7.939,7.939,0,0,1,213.4,49.1a8.35,8.35,0,0,1,5.768,2.35,7.88,7.88,0,0,1,2.35,5.608,8.589,8.589,0,0,1-2.35,5.661" transform="translate(-115.924 -42)"/><path class="a" d="M460.158,46.273h0a16.717,16.717,0,0,0-22.325,0,15.28,15.28,0,0,0,0,21.524,16.717,16.717,0,0,0,22.325,0,15.06,15.06,0,0,0,4.433-10.735,14.789,14.789,0,0,0-4.433-10.789m-5.394,16.45a7.848,7.848,0,0,1-5.768,2.3,8.063,8.063,0,0,1-5.822-2.35,7.334,7.334,0,0,1-2.3-5.448A7.939,7.939,0,0,1,449,49.1a8.35,8.35,0,0,1,5.768,2.35,7.88,7.88,0,0,1,2.35,5.608,8.1,8.1,0,0,1-2.35,5.661" transform="translate(-225.691 -42)"/><path class="a" d="M400.738,67.628c2.564-2.617,3.792-5.822,3.792-10.094,0-4.433-1.389-8.011-4.059-10.628-2.831-2.724-6.569-4.006-11.59-4.006H379V72.061h10.575a16.2,16.2,0,0,0,11.163-4.433m-14.314-1.923V49.149h1.923c2.03,0,4.326.214,6.142,1.869a8.742,8.742,0,0,1,2.3,6.463,8.14,8.14,0,0,1-2.243,6.089,8.928,8.928,0,0,1-6.463,2.136Z" transform="translate(-200.346 -42.419)"/><path class="a" d="M326.363,42.9,315.2,72.061h7.851l1.976-4.914.267-.694a19.279,19.279,0,0,0,10.255,0l.267.694,1.816,4.914h7.9L334.588,42.9Zm7.21,17.785a12.415,12.415,0,0,1-3.151.374,12,12,0,0,1-3.1-.374l3.044-9.08Z" transform="translate(-170.621 -42.419)"/><path class="a" d="M283.14,60.211a7.921,7.921,0,0,0,3.044-3.418,10.435,10.435,0,0,0,1.015-4.486,12.23,12.23,0,0,0-.427-3.2,8.265,8.265,0,0,0-5.02-5.608c-1.335-.534-2.884-.694-5.768-.694H264.5V71.961h7.157V62.668s2.03.16,2.777.16c.641,0,1.335-.053,1.976-.107l5.288,9.24h7.958l-6.943-11.43c.16-.107.267-.214.427-.32m-3.2-7.37a3.523,3.523,0,0,1-1.656,3.2,7.463,7.463,0,0,1-3.845.8,9.725,9.725,0,0,1-2.777-.427V49.1h3.2a11.114,11.114,0,0,1,3.151.374c1.228.534,1.923,1.5,1.923,3.365h0" transform="translate(-147 -42.373)"/><path class="a" d="M44.5,72.008H64.582v-6.3H51.924V60.525H64.1v-6.3H51.924V49.149H64.582V42.9H44.5Z" transform="translate(-44.5 -42.419)"/></g><g transform="translate(246.377)"><rect class="a" width="48.122" height="3.739" transform="translate(0 7.477)"/><rect class="a" width="46.146" height="3.739" transform="translate(0 49.884)"/><rect class="a" width="3.739" height="46.84" transform="translate(42.46 6.783)"/><rect class="a" width="3.739" height="46.199" transform="translate(0 7.477)"/><rect class="a" width="3.739" height="12.444" transform="translate(42.46)"/><rect class="a" width="13.032" height="3.739" transform="translate(40.591 7.477)"/></g><g transform="translate(255.029 23.233)"><path class="a" d="M557.367,56.5h-4.059L547.7,71.081h3.952l.961-2.457.107-.374a10.252,10.252,0,0,0,2.564.374,10.535,10.535,0,0,0,2.564-.32l.107.374.908,2.457h3.952Zm-2.083,9.08a7.627,7.627,0,0,1-1.549-.16l1.549-4.54,1.549,4.54a7.251,7.251,0,0,1-1.549.16" transform="translate(-533.974 -56.5)"/><path class="a" d="M530.6,56.5v8.973a2.355,2.355,0,0,1-2.19,2.4h-.427a2.43,2.43,0,0,1-2.19-2.4l-.053-.908V56.5H522v8.332a6.721,6.721,0,0,0,1.869,4.753,5.6,5.6,0,0,0,4.273,1.6h0a5.719,5.719,0,0,0,4.273-1.6,6.843,6.843,0,0,0,1.869-4.753V56.5Z" transform="translate(-522 -56.5)"/></g></svg>