<svg xmlns="http://www.w3.org/2000/svg" width="228.381" height="50" viewBox="0 0 228.381 50"><defs><style>.a{fill:#e72d2b;}</style></defs><path class="a" d="M260,116.475c-8.488,7.2-21.248.817-21.563-10.164-.314-11.58,9.744-15.876,19.642-13.788,3.774-.153,5.848-5.142.1-7.412a22.1,22.1,0,0,0-18.386,2.026,22.365,22.365,0,0,0-7.763,8.077,21.269,21.269,0,0,0-2.862,10.828,20.731,20.731,0,0,0,3.082,10.948,22.959,22.959,0,0,0,8.42,8.045,24.3,24.3,0,0,0,11.788,2.959,15.446,15.446,0,0,0,10.5-3.777C268.17,119.924,264.971,115.808,260,116.475ZM208.538,84a8.337,8.337,0,0,0-6.516,3.951Q194.993,106.439,188,124.957l8.19,2.858,3.135-8.58h18.4l3.163,8.758,8.284-3.186L214.65,87.3A6.393,6.393,0,0,0,208.538,84Zm-6.575,27.979,6.575-18.013V93.9l6.546,18.072Zm210.456,2.994a5.52,5.52,0,0,0-2.668.5,2.775,2.775,0,0,0-1.333,2.514,2.62,2.62,0,0,0,.756,2.016,3.557,3.557,0,0,0,1.414.7l-2.688,4.31h2.369l2.269-3.891h1.851v3.891h1.991V114.971Zm1.97,4.45H412.2a2.134,2.134,0,0,1-1.234-.3,1.079,1.079,0,0,1-.477-.938,1.269,1.269,0,0,1,.6-1.237,2.632,2.632,0,0,1,1.295-.22h2.01Zm-11.881-.538h-4.956v-3.913h-1.991v10.037h1.991v-4.37h4.956v4.37h1.99V114.971h-1.99Zm-13.43,0h-4.957v-3.913h-1.989v10.037h1.989v-4.37h4.957v4.37h1.989V114.971h-1.989Zm-15.7-3.913a5.82,5.82,0,0,0-2.867.518,2.482,2.482,0,0,0-1.334,2.091h2.03a.97.97,0,0,1,.5-.806,3.159,3.159,0,0,1,1.592-.288,2.343,2.343,0,0,1,1.473.346,1.916,1.916,0,0,1,.478,1.554v.365h-1.513a7.089,7.089,0,0,0-3.4.614,2.961,2.961,0,0,0-1.611,2.647,2.736,2.736,0,0,0,1.014,2.186,3.99,3.99,0,0,0,2.608.809,4.355,4.355,0,0,0,2.906-1.1v1.1h1.99v-6.2a4.048,4.048,0,0,0-.975-3.051A4.419,4.419,0,0,0,373.379,114.971Zm1.871,5.6a3.107,3.107,0,0,1-.578,1.938,2.661,2.661,0,0,1-2.13.979,1.9,1.9,0,0,1-1.334-.48,1.437,1.437,0,0,1-.418-1.075,1.482,1.482,0,0,1,1.174-1.517,6.41,6.41,0,0,1,1.951-.172h1.334Zm-12.874-.872a2.625,2.625,0,0,0,1.134-.739,2.321,2.321,0,0,0,.4-1.358,2.422,2.422,0,0,0-.776-1.855,4.3,4.3,0,0,0-2.787-.779h-4.677v10.037h4.817a4.474,4.474,0,0,0,2.866-.817,2.772,2.772,0,0,0,.936-2.115,2.536,2.536,0,0,0-.557-1.637A2.5,2.5,0,0,0,362.376,119.7Zm-4.717-3.013h2.428a2.4,2.4,0,0,1,1.394.3,1.069,1.069,0,0,1,.358.838.991.991,0,0,1-.338.819,2.361,2.361,0,0,1-1.513.319h-2.33Zm4.16,6.2a2.162,2.162,0,0,1-1.413.4h-2.747v-2.733h2.687a2.562,2.562,0,0,1,1.313.279,1.257,1.257,0,0,1,.558,1.118A1.212,1.212,0,0,1,361.819,122.892Zm-14.465-2.41-3.165-5.512H341.82l4.5,7.435-1.693,3.063a1.891,1.891,0,0,1-.417.53,1.224,1.224,0,0,1-.836.274h-.756V128h.815a2.939,2.939,0,0,0,1.712-.49,3.9,3.9,0,0,0,1.155-1.276l6.21-11.264H350.32Zm-7.4-5.512H337.6l-2.309,3.393-2.309-3.393H330.5l3.523,4.87-3.7,5.167h2.388l2.469-3.651,2.508,3.651h2.508l-3.723-5.148Zm-17.113,0a5.82,5.82,0,0,0-2.866.518,2.483,2.483,0,0,0-1.334,2.091h2.031a.969.969,0,0,1,.5-.806,3.155,3.155,0,0,1,1.592-.288,2.341,2.341,0,0,1,1.473.346,1.918,1.918,0,0,1,.478,1.555v.364H323.2a7.089,7.089,0,0,0-3.4.614,2.961,2.961,0,0,0-1.612,2.647A2.736,2.736,0,0,0,319.2,124.2a3.993,3.993,0,0,0,2.608.808,4.357,4.357,0,0,0,2.906-1.1v1.1h1.99v-6.2a4.045,4.045,0,0,0-.975-3.051A4.418,4.418,0,0,0,322.841,114.971Zm1.871,5.6a3.111,3.111,0,0,1-.577,1.938,2.662,2.662,0,0,1-2.13.979,1.9,1.9,0,0,1-1.334-.48,1.431,1.431,0,0,1-.418-1.075,1.481,1.481,0,0,1,1.174-1.517,6.4,6.4,0,0,1,1.95-.172h1.334Zm-15-5.6a4.6,4.6,0,0,0-1.671.269,2.985,2.985,0,0,0-1.394,1v-1.267h-1.891V128h1.991v-4.243a3.14,3.14,0,0,0,1.273.96,4.148,4.148,0,0,0,1.7.291,3.979,3.979,0,0,0,3.26-1.29,6.569,6.569,0,0,0-.18-7.633A4.188,4.188,0,0,0,309.708,114.969Zm1.812,7.212a2.377,2.377,0,0,1-2.13,1.153,2.35,2.35,0,0,1-2.091-1.1,4.786,4.786,0,0,1,.02-4.519,2.58,2.58,0,0,1,4.061-.135,3.792,3.792,0,0,1,.657,2.4A4.29,4.29,0,0,1,311.52,122.181Zm-19.462-5.454h3.483v8.281h1.991v-8.281h3.523v-1.756h-9Zm-5.727,6.177a1.849,1.849,0,0,1-1.135.379,2.23,2.23,0,0,1-2.109-1.875,9.988,9.988,0,0,1-.359-2.954,9.337,9.337,0,0,1,.478-3.256,2.071,2.071,0,0,1,2.01-1.478,1.637,1.637,0,0,1,1.094.36,1.416,1.416,0,0,1,.478,1.061h2.031a3.249,3.249,0,0,0-1.035-2.367,3.769,3.769,0,0,0-2.528-.8,3.961,3.961,0,0,0-3.722,2.046,10.194,10.194,0,0,0-.876,4.507,10.377,10.377,0,0,0,.757,4.186,4.465,4.465,0,0,0,6.448,1.495,3.648,3.648,0,0,0,1.1-2.519h-2.07A1.949,1.949,0,0,1,286.331,122.9Zm64.213-32.765a5.408,5.408,0,0,0-2.591.513V84.02H343.9v6.632a5.4,5.4,0,0,0-2.59-.513c-4.143,0-6.664,2.506-6.664,8.131,0,5.223,2.279,7.982,5.974,7.982a6.312,6.312,0,0,0,3.28-.753v5.551h4.048V105.5a6.315,6.315,0,0,0,3.274.753c3.444,0,5.98-2.857,5.98-8.077C357.206,92.547,354.687,90.139,350.544,90.139Zm-6.64,12.38a5.549,5.549,0,0,1-2.085.328c-2.124,0-3-1.735-3-4.576,0-3.1.936-4.741,2.8-4.741a4.368,4.368,0,0,1,2.279.457Zm6.131.328a5.568,5.568,0,0,1-2.083-.328V93.986a4.369,4.369,0,0,1,2.278-.457c1.869,0,2.8,1.54,2.8,4.646C353.033,101.014,351.9,102.846,350.036,102.846ZM305.121,91.1v7.622a10.305,10.305,0,0,1-.263,3.365,3.462,3.462,0,0,1-1.345,1.836l1.109,2.375c3.264-.915,4.493-2.335,4.493-6.845V93.847a11.217,11.217,0,0,1,2.152-.194,10.847,10.847,0,0,1,2.12.194v12.144h4.066V91.1a20,20,0,0,0-6.187-.95A19.759,19.759,0,0,0,305.121,91.1ZM372.3,104.5a7,7,0,0,1-1.349-4.639V95.7c0-2.248-.262-3.073-.857-3.9-.824-1.159-2.2-1.655-4.736-1.655a21.255,21.255,0,0,0-5.23.618l.6,2.981a26.128,26.128,0,0,1,3.2-.3c2.692,0,3,.392,3,2.4v.756a7.818,7.818,0,0,0-2.054-.277c-4.066,0-6.207,1.982-6.207,5.249,0,3.074,2.284,4.749,5.088,4.749a8.264,8.264,0,0,0,2.987-.54,7.855,7.855,0,0,0,1.414-.8,4.173,4.173,0,0,0,1.547,1.3Zm-7.35-1.4c-1.454,0-2.28-.571-2.28-2.061,0-1.549,1.043-2.075,3.057-2.075a4.3,4.3,0,0,1,1.2.151v1.113a9.744,9.744,0,0,0,.209,2.494A6.047,6.047,0,0,1,364.949,103.1Zm-31.866-2.65c0-3.326-2.045-5.383-5.867-5.383a9.58,9.58,0,0,0-2.606.388V90.4h-4.064l-.017,14.78a15.574,15.574,0,0,0,5.926,1.176C330.771,106.354,333.082,104.125,333.082,100.453Zm-8.476,2.516V98.513a7.22,7.22,0,0,1,1.782-.238c1.865,0,2.49.906,2.49,2.365,0,1.524-.537,2.569-2.49,2.569A5.092,5.092,0,0,1,324.606,102.969ZM291.089,83.995a4.212,4.212,0,0,0-3.317,2.112q-3.579,9.883-7.138,19.78l4.169,1.529,1.595-4.586h9.365l1.611,4.68,4.216-1.7-7.39-20.05A3.22,3.22,0,0,0,291.089,83.995Zm-3.348,14.957,3.348-9.63V89.29l3.332,9.662ZM273.144,81a1.5,1.5,0,0,0-1.5,1.5V129.5a1.5,1.5,0,0,0,3,0V82.493A1.5,1.5,0,0,0,273.144,81Z" transform="translate(-188 -80.995)"/></svg>