<svg fill="white" xmlns="http://www.w3.org/2000/svg" width="300" height="39.135" viewBox="0 0 300 39.135"><defs><style>.a{fill:#93c140;}</style></defs><path class="a" d="M65.9,54.525V47.2h8.79v7.325Z" transform="translate(-22.015 -15.725)"/><path d="M241.731,38.136h-8.257c-5.327-7.392-10.788-15.05-16.315-22.642a4.9,4.9,0,0,0-.932.266V38.136h-8.457V.778h8.657c5.394,7.525,10.988,15.183,16.515,22.908.266,0,.533-.067.733-.067V.778H241.8C241.731,13.1,241.731,25.417,241.731,38.136ZM0,38.07H9.057V23.153H24.44V38H33.3V.711H24.173V14.762H8.923V.644H.067C0,13.23,0,25.55,0,38.07ZM172.009,14.629V.711h-8.857V38h9.057V23.219h15.383V38h8.79V.778h-8.923V14.829C182.131,15.1,177.27,15.428,172.009,14.629ZM94.1,38.07H119.2V30.678H103.085V23.153h15.449V15.894c-5.261-.733-10.522.6-15.449-.866V8.236h15.982V.778H94.029C94.1,13.364,94.1,25.683,94.1,38.07ZM281.021,26.482a11.392,11.392,0,0,1-.266-13.851c3.33-4.329,8.99-5.327,15.383-2.6,1.065-2.331,2.131-4.728,3.2-7.059-7.725-5.461-19.711-3.2-25.239,3.862a20.072,20.072,0,0,0,1.532,27.1c6.726,6.792,19.845,6.326,24.373,1.6-1.132-2.264-2.331-4.661-3.6-7.125C289.811,31.677,284.684,30.944,281.021,26.482Zm-143.574,0a11.392,11.392,0,0,1-.266-13.851c3.33-4.329,8.99-5.327,15.383-2.6,1.065-2.331,2.131-4.728,3.2-7.059-7.725-5.461-19.711-3.2-25.239,3.862a20.072,20.072,0,0,0,1.532,27.1c6.726,6.792,19.845,6.326,24.373,1.6-1.132-2.264-2.331-4.661-3.6-7.125C146.238,31.677,141.11,30.944,137.447,26.482ZM60.8,8.369h8.124V38h9.39V8.236H85.9V.778H60.8ZM43.951,22.753h8.79V.711h-8.79Zm209.1,15.316h8.457V16.027h-8.457ZM261.576.778h-8.59V7.57h8.59Z" transform="translate(0 0.064)"/></svg>