<svg xmlns="http://www.w3.org/2000/svg" width="16" height="22" viewBox="0 0 16 22"><defs><style>.a{fill:#8dabb8;}</style></defs><path class="a" d="M1.778,22A1.808,1.808,0,0,1,0,20.167V1.833A1.808,1.808,0,0,1,1.778,0h9.333a.44.44,0,0,1,.314.134L15.87,4.718a.464.464,0,0,1,.13.323V20.167A1.808,1.808,0,0,1,14.222,22ZM.889,1.833V20.167a.9.9,0,0,0,.889.916H14.222a.9.9,0,0,0,.888-.916V5.5H12.444a1.808,1.808,0,0,1-1.778-1.833V.916H1.778A.9.9,0,0,0,.889,1.833ZM11.556,3.667a.9.9,0,0,0,.888.916h2.038L11.556,1.565Zm-8.889,13.6c0-.9.938-1.364,2.357-2.056.311-.152.646-.317,1-.5.1-.05.2-.1.3-.148q.193-.444.362-.963c.233-.721.44-1.36.616-1.915A4.463,4.463,0,0,1,6.223,9.211c0-1.552.724-1.877,1.333-1.877.8,0,1.334.312,1.334,1.834A10.55,10.55,0,0,1,8.3,11.5c.262.322.564.661.9,1.01a13.063,13.063,0,0,0,1.063.946,10.381,10.381,0,0,1,1.29-.164c.577,0,1.777,0,1.777,1.084,0,.55-.231,1.208-1.334,1.208a5.049,5.049,0,0,1-1.963-1.155,17.2,17.2,0,0,0-3.051.849C6.074,17.2,4.827,18.333,4,18.333,3.359,18.333,2.667,17.926,2.667,17.269ZM5.4,16.041c-.909.444-1.849.9-1.849,1.229A.693.693,0,0,0,4,17.417c.252,0,.912-.464,1.579-1.462Zm5.881-1.811a3.243,3.243,0,0,0,.746.439c.412,0,.412-.088.412-.293-.046-.1-.232-.167-.888-.167C11.5,14.208,11.411,14.216,11.286,14.23ZM7.533,13.9c-.026.082-.053.162-.081.242.557-.183,1.14-.336,1.688-.458-.275-.243-.482-.436-.566-.522q-.319-.33-.6-.644C7.846,12.927,7.7,13.385,7.533,13.9ZM7.111,9.211A2.866,2.866,0,0,0,7.646,10.6,7.568,7.568,0,0,0,8,9.167c0-.917-.13-.917-.445-.917C7.4,8.25,7.111,8.25,7.111,9.211Z"/></svg>