<svg xmlns="http://www.w3.org/2000/svg" width="32" height="32" viewBox="0 0 32 32"><defs><style>.a{fill:#e72d2b;}</style></defs><path class="a" d="M27.777,31.994c-3.146-.331-10.876-1.7-18.472-9.3S.337,7.366.006,4.221a1.1,1.1,0,0,1,.607-1.1L6.93.149a1.1,1.1,0,0,1,1.429.4l3.935,6.111a1.1,1.1,0,0,1-.156,1.365L9.668,10.5a1.1,1.1,0,0,0-.315.918,12.916,12.916,0,0,0,3.9,7.333,12.91,12.91,0,0,0,7.332,3.9,1.094,1.094,0,0,0,.918-.315l2.47-2.471a1.1,1.1,0,0,1,1.365-.155l6.111,3.935a1.1,1.1,0,0,1,.4,1.427l-2.975,6.318a1.1,1.1,0,0,1-1.1.607ZM29.793,16A13.807,13.807,0,0,0,16,2.207,1.1,1.1,0,0,1,16,0,16.017,16.017,0,0,1,32,16a1.1,1.1,0,1,1-2.207,0Zm-5.517,0A8.286,8.286,0,0,0,16,7.724a1.1,1.1,0,0,1,0-2.207A10.5,10.5,0,0,1,26.483,16a1.1,1.1,0,1,1-2.207,0Z"/></svg>